<svg version="1.1" id="Layer_1" xmlns="http://www.w3.org/2000/svg" x="0px" y="0px"
     width="212px" height="48px" viewBox="0 0 212 48">
    <g fill="#FFF">
        <path d="M12.646,32.385c-0.404,0-0.775-0.157-1.112-0.472c-2.269-2.126-4.762-3.602-7.479-4.425
		c0.083,2.179,0.124,3.388,0.124,3.627c0,0.428-0.15,0.788-0.449,1.084s-0.674,0.443-1.123,0.443s-0.824-0.147-1.123-0.443
		s-0.449-0.656-0.449-1.084c0-0.561,0.007-1.401,0.022-2.521s0.022-1.96,0.022-2.521l0.022-9.063c0-0.487,0.146-0.928,0.438-1.325
		C1.92,15.176,2.448,14.948,3.122,15c1.819,0.135,2.751,0.206,2.796,0.213c1.048,0.127,1.939,0.378,2.673,0.752
		c3.197,1.61,4.795,3.605,4.795,5.986c0,0.981-0.335,1.847-1.005,2.6c-0.67,0.752-1.675,1.387-3.016,1.903
		c1.984,1.108,3.478,2.238,4.481,3.392c0.262,0.3,0.393,0.633,0.393,0.999c0,0.42-0.157,0.781-0.472,1.084
		C13.454,32.233,13.08,32.385,12.646,32.385z M5.447,18.257c-0.06-0.007-0.498-0.038-1.314-0.09v5.963
		c0.187,0.007,0.352,0.011,0.494,0.011c1.834,0,3.193-0.229,4.077-0.685c0.382-0.195,0.732-0.453,1.05-0.775
		c0.318-0.322,0.477-0.565,0.477-0.73c0-0.838-0.532-1.647-1.595-2.426C7.625,18.792,6.563,18.369,5.447,18.257z"/>
        <path d="M21.529,32.767c-1.79,0-3.253-0.427-4.391-1.28c-1.258-0.943-1.887-2.272-1.887-3.986c0-1.895,0.498-3.497,1.494-4.807
		c1.108-1.453,2.602-2.179,4.481-2.179c1.303,0,2.385,0.209,3.246,0.629c1.13,0.554,1.696,1.415,1.696,2.583
		c0,0.824-0.46,1.553-1.381,2.19c-0.419,0.292-1.262,0.719-2.527,1.28l-3.785,1.673c0.359,0.39,0.793,0.682,1.303,0.877
		c0.509,0.194,1.093,0.291,1.752,0.291c1.003,0,1.853-0.205,2.549-0.617c0.622-0.367,1.119-0.551,1.494-0.551
		c0.779,0,1.168,0.379,1.168,1.135c0,0.854-0.625,1.55-1.875,2.089C23.816,32.542,22.704,32.767,21.529,32.767z M21.226,23.232
		c-0.696,0-1.292,0.232-1.786,0.696s-0.891,1.161-1.19,2.089c0.846-0.367,1.688-0.73,2.527-1.09c1.011-0.457,1.815-0.88,2.415-1.269
		C22.689,23.374,22.034,23.232,21.226,23.232z"/>
        <path d="M38.419,32.867c-0.344,0-0.891-0.333-1.64-0.999c-0.689,0.329-1.295,0.578-1.819,0.747
		c-0.524,0.168-0.97,0.252-1.336,0.252c-1.804,0-3.158-0.482-4.06-1.448c-0.902-0.966-1.354-2.411-1.354-4.335
		c0-1.805,0.667-3.349,1.999-4.633c1.333-1.284,2.927-1.926,4.784-1.926c0.711,0,1.535,0.2,2.471,0.601
		c1.13,0.482,1.696,1.042,1.696,1.679c0,0.267-0.086,0.5-0.258,0.701c-0.075,0.296-0.133,0.669-0.174,1.118
		c-0.042,0.448-0.062,0.973-0.062,1.573c0,1.416,0.101,2.435,0.303,3.058c0.022,0.066,0.195,0.452,0.517,1.156
		c0.292,0.638,0.438,1.001,0.438,1.09c0,0.393-0.152,0.719-0.455,0.979C39.166,32.738,38.816,32.867,38.419,32.867z M35.634,25.287
		c0-0.24,0.017-0.515,0.05-0.825c0.034-0.311,0.084-0.657,0.152-1.039c-0.15-0.075-0.283-0.129-0.399-0.163
		c-0.116-0.033-0.215-0.05-0.297-0.05c-1.018,0-1.909,0.399-2.673,1.196c-0.764,0.798-1.146,1.72-1.146,2.769
		c0,1.003,0.18,1.758,0.539,2.263c0.359,0.506,0.898,0.759,1.617,0.759c0.464,0,0.904-0.077,1.32-0.23
		c0.415-0.153,0.807-0.38,1.173-0.68C35.747,27.503,35.634,26.17,35.634,25.287z"/>
        <path d="M46.674,32.957c-1.647,0-3.028-0.468-4.144-1.403c-1.175-0.988-1.763-2.291-1.763-3.908c0-1.489,0.528-3.028,1.583-4.616
		c1.198-1.812,2.59-2.718,4.178-2.718c0.779,0,1.688,0.209,2.729,0.629c1.265,0.517,1.898,1.112,1.898,1.786
		c0,0.367-0.127,0.692-0.382,0.977c-0.27,0.307-0.618,0.46-1.044,0.46c-0.322,0-0.709-0.174-1.162-0.522
		c-0.453-0.348-1.133-0.522-2.039-0.522c-0.577,0-1.202,0.565-1.875,1.696c-0.644,1.093-0.966,2.036-0.966,2.83
		c0,0.786,0.285,1.403,0.854,1.853c0.539,0.428,1.25,0.641,2.134,0.641c0.501,0,1.116-0.191,1.842-0.572
		c0.726-0.383,1.187-0.573,1.381-0.573c0.404,0,0.75,0.146,1.039,0.438c0.289,0.291,0.433,0.625,0.433,0.999
		c0,0.584-0.636,1.168-1.909,1.752C48.321,32.699,47.393,32.957,46.674,32.957z"/>
        <path d="M61.251,23.209c-0.157,0-0.343-0.005-0.556-0.017c-0.214-0.011-0.399-0.017-0.556-0.017c-0.307,0-0.663,0.03-1.067,0.09
		c0.135,3.024,0.202,5.001,0.202,5.93c0,0.098,0.004,0.279,0.011,0.545s0.011,0.48,0.011,0.646c0,1.722-0.543,2.583-1.628,2.583
		c-0.412,0-0.768-0.127-1.067-0.382c-0.33-0.27-0.494-0.606-0.494-1.011c0-0.27,0.011-0.674,0.034-1.213s0.034-0.943,0.034-1.213
		c0-0.906-0.067-2.845-0.202-5.817c-0.464-0.022-1.166-0.084-2.105-0.186c-0.94-0.101-1.41-0.585-1.41-1.454
		c0-0.419,0.142-0.775,0.427-1.067s0.651-0.438,1.101-0.438c0.277,0,0.914,0.045,1.909,0.135c-0.007-0.24-0.026-0.636-0.056-1.19
		c-0.03-0.479-0.045-0.85-0.045-1.112c0-0.419,0.153-0.768,0.46-1.044s0.678-0.416,1.112-0.416c1.108,0,1.662,0.932,1.662,2.796
		l-0.022,0.921c0.464-0.067,0.842-0.101,1.134-0.101c0.861,0,1.449,0.056,1.763,0.168c0.599,0.209,0.898,0.667,0.898,1.37
		c0,0.427-0.146,0.782-0.438,1.067S61.7,23.209,61.251,23.209z"/>
        <path d="M72.83,27.41c-1.033,0.074-2.871,0.111-5.514,0.111c-0.464,0-0.872-0.104-1.224-0.314
		c-0.412-0.254-0.618-0.599-0.618-1.033c0-0.434,0.206-0.778,0.618-1.033c0.352-0.217,0.76-0.325,1.224-0.325
		c0.591,0,1.479-0.017,2.662-0.051c1.183-0.033,2.07-0.05,2.662-0.05c0.464,0,0.872,0.094,1.224,0.281
		c0.449,0.239,0.674,0.595,0.674,1.067C74.537,26.878,73.968,27.327,72.83,27.41z"/>
        <path d="M93.91,16.603c-0.15,0.549-0.225,1.027-0.225,1.433c0,0.21-0.021,0.536-0.063,0.976s-0.063,0.765-0.063,0.976
		c0,0.714-0.037,1.774-0.111,3.181c-0.076,1.406-0.113,2.467-0.113,3.181c0,0.549,0.041,1.368,0.125,2.459
		c0.082,1.09,0.123,1.91,0.123,2.459c0,0.414-0.146,0.764-0.438,1.049c-0.293,0.286-0.656,0.429-1.09,0.429
		c-0.441,0-0.824-0.141-1.146-0.421c-0.322-0.281-0.482-0.624-0.482-1.028c0-0.546-0.023-1.366-0.072-2.459
		s-0.074-1.913-0.074-2.459c0-0.428,0.008-0.805,0.023-1.135c-1.176,0.053-2.629,0.236-4.357,0.551
		c-1.438,0.262-2.875,0.527-4.313,0.797c-0.016,0.476-0.068,1.269-0.158,2.38c-0.074,0.979-0.111,1.779-0.111,2.401
		c0,0.384-0.146,0.709-0.438,0.975c-0.293,0.266-0.656,0.398-1.09,0.398c-0.436,0-0.797-0.139-1.09-0.417
		c-0.291-0.277-0.438-0.617-0.438-1.02c0-0.737,0.064-1.841,0.195-3.311c0.131-1.469,0.197-2.572,0.197-3.311
		c0-0.936,0.023-2.344,0.068-4.226c0.045-1.882,0.066-3.291,0.066-4.227c0-0.402,0.146-0.742,0.438-1.02
		c0.293-0.277,0.656-0.417,1.09-0.417s0.797,0.142,1.09,0.427c0.291,0.285,0.438,0.633,0.438,1.044c0,0.569-0.021,1.424-0.063,2.566
		c-0.041,1.142-0.061,1.998-0.061,2.566c0,0.187-0.027,0.546-0.078,1.078c-0.045,0.494-0.064,0.872-0.057,1.134l4.313-0.809
		c1.684-0.299,3.137-0.472,4.357-0.517c0.029-0.507,0.078-1.869,0.146-4.086c0.014-0.583,0.189-1.252,0.527-2.009
		c0.418-0.931,0.895-1.396,1.426-1.396c0.396,0,0.748,0.132,1.057,0.395c0.328,0.286,0.494,0.643,0.494,1.071
		C93.955,16.377,93.939,16.49,93.91,16.603z"/>
        <path d="M100.49,32.912c-1.385,0-2.575-0.475-3.571-1.426c-1.093-1.041-1.666-2.43-1.719-4.166
		c-0.052-1.655,0.401-3.13,1.359-4.425c1.138-1.527,2.722-2.291,4.75-2.291c1.498,0,2.688,0.599,3.572,1.797
		c0.793,1.078,1.189,2.415,1.189,4.009c0,1.737-0.464,3.22-1.393,4.447C103.639,32.228,102.242,32.912,100.49,32.912z
		 M101.164,23.569c-0.921-0.007-1.647,0.412-2.179,1.258c-0.449,0.711-0.674,1.542-0.674,2.494c0,0.898,0.255,1.587,0.764,2.066
		c0.404,0.381,0.876,0.572,1.415,0.572c0.651,0,1.217-0.221,1.696-0.662c0.546-0.518,0.838-1.217,0.875-2.101
		C103.159,24.786,102.526,23.576,101.164,23.569z"/>
        <path d="M112.585,32.912c-1.385,0-2.575-0.475-3.571-1.426c-1.093-1.041-1.666-2.43-1.719-4.166
		c-0.052-1.655,0.401-3.13,1.359-4.425c1.138-1.527,2.722-2.291,4.75-2.291c1.498,0,2.688,0.599,3.572,1.797
		c0.793,1.078,1.189,2.415,1.189,4.009c0,1.737-0.464,3.22-1.393,4.447C115.733,32.228,114.337,32.912,112.585,32.912z
		 M113.259,23.569c-0.921-0.007-1.647,0.412-2.179,1.258c-0.449,0.711-0.674,1.542-0.674,2.494c0,0.898,0.255,1.587,0.764,2.066
		c0.404,0.381,0.876,0.572,1.415,0.572c0.651,0,1.217-0.221,1.696-0.662c0.546-0.518,0.838-1.217,0.875-2.101
		C115.254,24.786,114.621,23.576,113.259,23.569z"/>
        <path d="M129.498,32.711c-0.591,0-1.04-0.285-1.348-0.854c-0.366-0.682-0.917-1.486-1.65-2.415
		c-1.138-1.445-1.74-2.212-1.809-2.302c-0.599,0.441-1.093,0.778-1.482,1.01c-0.074,1.041-0.111,2.037-0.111,2.988
		c0,0.434-0.146,0.793-0.438,1.078c-0.292,0.284-0.663,0.426-1.112,0.426c-1.055,0-1.583-0.629-1.583-1.887
		c0-0.591,0.043-1.477,0.129-2.655c0.086-1.18,0.13-2.065,0.13-2.656c0-1.085,0.017-2.327,0.05-3.723
		c0.034-1.396,0.051-2.63,0.051-3.701c0-0.322-0.017-0.702-0.051-1.14c-0.033-0.438-0.05-0.818-0.05-1.14
		c0-0.434,0.146-0.792,0.438-1.072c0.292-0.281,0.662-0.421,1.111-0.421s0.82,0.14,1.112,0.421c0.292,0.28,0.438,0.638,0.438,1.072
		c0,0.33,0.019,0.719,0.056,1.168s0.056,0.838,0.056,1.168c0,0.891-0.021,1.947-0.066,3.167c-0.045,1.168-0.064,2.208-0.057,3.122
		c1.019-0.786,2.568-2.216,4.649-4.29c0.329-0.33,0.704-0.494,1.123-0.494s0.79,0.153,1.112,0.46
		c0.321,0.307,0.482,0.663,0.482,1.067c0,0.344-0.146,0.678-0.438,1c-0.884,0.988-1.936,2.021-3.156,3.1l2.336,3.01
		c1.131,1.504,1.695,2.508,1.695,3.01c0,0.411-0.164,0.762-0.494,1.05C130.292,32.566,129.918,32.711,129.498,32.711z"/>
        <path d="M140.381,24.029c-0.741,0-1.187-0.311-1.337-0.932c-0.299-0.052-0.605-0.079-0.92-0.079c-1.805,0-2.707,0.247-2.707,0.741
		c0,0.292,0.543,0.685,1.629,1.179c1.482,0.681,2.485,1.213,3.01,1.594c1.085,0.787,1.628,1.674,1.628,2.662
		c0,1.288-0.599,2.265-1.797,2.932c-0.966,0.531-2.152,0.797-3.56,0.797c-0.996,0-1.906-0.153-2.729-0.461
		c-1.123-0.419-1.685-1.036-1.685-1.853c0-0.749,0.445-1.123,1.336-1.123c0.345,0,0.843,0.108,1.494,0.325
		c0.651,0.218,1.153,0.326,1.505,0.326c1.52,0,2.283-0.307,2.291-0.921c0-0.382-0.528-0.805-1.583-1.269
		c-1.543-0.682-2.531-1.172-2.965-1.472c-1.057-0.741-1.584-1.644-1.584-2.707c0-1.505,0.797-2.52,2.393-3.043
		c0.936-0.307,2.357-0.46,4.268-0.46c0.748,0,1.303,0.097,1.662,0.292c0.494,0.262,0.74,0.745,0.74,1.449
		C141.47,23.355,141.107,24.029,140.381,24.029z"/>
        <path d="M152.341,27.41c-1.033,0.074-2.871,0.111-5.515,0.111c-0.464,0-0.872-0.104-1.224-0.314
		c-0.412-0.254-0.618-0.599-0.618-1.033c0-0.434,0.206-0.778,0.618-1.033c0.352-0.217,0.76-0.325,1.224-0.325
		c0.592,0,1.479-0.017,2.662-0.051c1.183-0.033,2.07-0.05,2.662-0.05c0.464,0,0.872,0.094,1.224,0.281
		c0.449,0.239,0.674,0.595,0.674,1.067C154.048,26.878,153.479,27.327,152.341,27.41z"/>
        <path d="M162.506,23.378c-0.338,1.213-0.809,3.044-1.416,5.491c-0.142,0.847-0.28,1.688-0.415,2.527
		c-0.307,1.063-0.872,1.595-1.696,1.595c-0.516,0-0.924-0.176-1.224-0.528c-0.255-0.299-0.382-0.654-0.382-1.066
		c0-1.213,0.258-2.691,0.775-4.436c0.771-2.613,1.187-4.062,1.246-4.347c0.217-1.153,0.438-2.306,0.662-3.459
		c0.338-1.587,0.702-2.645,1.096-3.173c0.393-0.527,0.889-0.792,1.488-0.792c0.681,0,1.183,0.344,1.504,1.033
		c0.3,0.651,0.622,1.984,0.967,3.998c0.329,1.954,0.819,4.058,1.471,6.311c0.854-2.223,1.647-4.664,2.381-7.322l0.629-2.583
		c0.404-1.071,1.029-1.606,1.875-1.606c0.816,0,1.423,0.622,1.82,1.864c0.164,0.501,0.34,1.438,0.527,2.808
		c0.435,3.189,0.98,5.923,1.64,8.198c0.666,2.313,0.999,3.571,0.999,3.773c0,0.441-0.176,0.813-0.527,1.111
		c-0.329,0.27-0.7,0.404-1.111,0.404c-0.816,0-1.423-0.584-1.82-1.752l-0.629-2.717c-0.359-1.348-0.748-3.283-1.168-5.807
		c-0.336,1.003-0.895,2.579-1.673,4.729l-0.674,2.066c-0.277,0.815-0.565,1.485-0.864,2.01c-0.397,0.696-0.951,1.045-1.662,1.045
		c-0.704,0-1.243-0.416-1.617-1.247l-0.629-2.089C163.494,27.503,162.97,25.489,162.506,23.378z"/>
        <path d="M183.281,32.936c-1.901,0-3.398-0.424-4.492-1.27c-0.92-0.704-1.381-1.516-1.381-2.438c0-0.471,0.143-0.862,0.427-1.173
		s0.678-0.466,1.179-0.466c0.674,0,1.168,0.344,1.482,1.033c0.428,0.92,1.393,1.381,2.898,1.381c1.287,0,2.534-0.281,3.739-0.842
		c1.25-0.577,1.876-1.21,1.876-1.898c0-0.943-0.39-1.564-1.168-1.864c-0.555-0.218-1.666-0.345-3.336-0.382
		c-1.295-0.03-2.456-0.273-3.481-0.73c-1.385-0.622-2.066-1.512-2.044-2.673c0.022-1.46,0.801-2.798,2.336-4.015
		c1.535-1.216,3.227-1.825,5.076-1.825c0.733,0,1.64,0.168,2.718,0.505c1.34,0.419,2.011,0.902,2.011,1.449
		c0,0.389-0.135,0.734-0.404,1.033c-0.3,0.337-0.686,0.505-1.157,0.505c-0.352,0-0.878-0.075-1.578-0.225s-1.229-0.225-1.589-0.225
		c-0.966,0.007-1.883,0.24-2.752,0.696c-0.898,0.464-1.348,0.97-1.348,1.516c0,0.285,0.137,0.519,0.41,0.702
		c0.273,0.184,0.684,0.313,1.23,0.388c0.958,0.052,1.912,0.105,2.863,0.157c1.662,0.127,2.977,0.595,3.941,1.404
		c1.063,0.898,1.596,2.141,1.596,3.729c0,1.932-1.102,3.395-3.303,4.391C187.354,32.557,185.438,32.936,183.281,32.936z"/>
        <path d="M207.371,18.785c-0.584,0-1.494-0.041-2.729-0.124c-1.191-0.083-2.101-0.12-2.729-0.112c0.03,0.854,0.131,2.374,0.304,4.56
		c0.156,1.932,0.235,3.459,0.235,4.582c0,0.255,0.026,0.633,0.079,1.134c0.052,0.502,0.078,0.88,0.078,1.135
		c0,0.562-0.12,1.066-0.359,1.516c-0.307,0.577-0.745,0.865-1.314,0.865c-0.411,0-0.774-0.131-1.089-0.393
		c-0.352-0.293-0.528-0.659-0.528-1.102c0-0.104,0.02-0.264,0.057-0.477c0.037-0.214,0.057-0.377,0.057-0.488
		c0-0.345-0.024-0.865-0.073-1.562s-0.073-1.221-0.073-1.572c0-1.003-0.078-2.362-0.236-4.077c-0.18-1.969-0.284-3.328-0.314-4.077
		h-0.584c-1.669,0-2.994-0.12-3.975-0.359c-0.832-0.202-1.247-0.692-1.247-1.471c0-0.382,0.135-0.726,0.404-1.033
		c0.314-0.367,0.727-0.532,1.235-0.494c0.262,0.015,0.857,0.079,1.785,0.191c0.742,0.083,1.341,0.124,1.797,0.124
		c0.457,0,1.141-0.007,2.05-0.022c0.91-0.015,1.593-0.022,2.05-0.022c0.569,0,1.423,0.04,2.561,0.118
		c1.138,0.079,1.991,0.118,2.561,0.118c0.449,0,0.825,0.146,1.129,0.438c0.303,0.292,0.455,0.651,0.455,1.078
		s-0.152,0.788-0.455,1.083C208.196,18.637,207.82,18.785,207.371,18.785z"/>
    </g>
</svg>
